<?xml version="1.0" standalone="no"?><!DOCTYPE svg PUBLIC "-//W3C//DTD SVG 1.1//EN" "http://www.w3.org/Graphics/SVG/1.1/DTD/svg11.dtd"><svg t="1544601326340" class="icon" style="" viewBox="0 0 1024 1024" version="1.1" xmlns="http://www.w3.org/2000/svg" p-id="3458" xmlns:xlink="http://www.w3.org/1999/xlink" width="200" height="200"><defs><style type="text/css"></style></defs><path d="M452.676893 78.69327c-15.654538-6.361895-34.744315-2.402723-46.544059 9.712199L205.211778 293.863864l-98.367355 0c-22.948665 0-41.554418 18.20871-41.554418 41.160445l0 353.999476c0 22.951735 18.605753 41.160445 41.554418 41.160445l98.367355 0L405.009244 935.642626c7.978718 8.198729 18.783809 12.670577 29.786397 12.670577 5.259794 0 12.812817-0.948605 17.881253-3.00852 15.663748-6.367011 28.157293-21.542642 28.157293-38.452777L480.834186 117.196189C480.834186 100.286054 468.340641 85.060281 452.676893 78.69327zM397.72535 804.584732 254.775614 659.84114c-7.822153-8.037047-20.807908-12.765745-32.024367-12.765745l-74.353428 0L148.397818 376.972701l74.353428 0c11.215436 0 24.201192-4.728698 32.024367-12.765745l142.949736-144.743592L397.72535 804.584732zM946.930717 636.423801c16.008602 16.447601 15.653515 42.762943-0.785899 58.774615-8.080026 7.864108-18.540262 11.780301-28.984125 11.780301-10.824533 0-21.635763-4.200672-29.78128-12.567223L767.838829 571.611679 648.299269 694.411493c-8.146541 8.365528-18.960841 12.567223-29.78128 12.567223-10.44898 0-20.904099-3.916193-28.984125-11.780301-16.439414-16.011672-16.795525-42.327014-0.785899-58.774615l121.091916-124.397195L588.746942 387.630435c-16.008602-16.447601-15.653515-42.762943 0.785899-58.774615 16.45988-16.011672 42.761919-15.646352 58.765405 0.785899l119.53956 122.800837 119.540583-122.800837c16.013719-16.45374 42.314735-16.793478 58.765405-0.785899 16.440437 16.011672 16.795525 42.327014 0.785899 58.774615L825.837778 512.026606 946.930717 636.423801z" p-id="3459"></path></svg>